<svg width="659" height="686" viewBox="0 0 659 686" fill="none" xmlns="http://www.w3.org/2000/svg">
<g filter="url(#filter0_bii)">
<path fill-rule="evenodd" clip-rule="evenodd" d="M319.955 2.74821C383.267 7.23528 440.205 38.1598 495.952 72.4215C555.749 109.172 635.597 135.3 655.472 208.955C675.609 283.578 603.497 349.731 591.519 426.57C580.119 499.703 637.094 596.134 587.532 644.799C535.178 696.206 453.156 621.918 384.225 630.115C333.027 636.203 292.663 687.021 241.191 685.984C181.242 684.778 117.788 669.885 73.7234 623.864C28.0176 576.129 -3.42355 504.66 0.298688 434.396C3.88179 366.759 71.6662 328.356 92.7379 264.933C116.265 194.12 82.3917 100.439 129.198 46.4287C175.565 -7.0736 253.869 -1.93545 319.955 2.74821Z" fill="#EEFFFA" fill-opacity="0.106"/>
</g>
<defs>
<filter id="filter0_bii" x="-44.8333" y="-44.8333" width="748.667" height="775.667" filterUnits="userSpaceOnUse" color-interpolation-filters="sRGB">
<feFlood flood-opacity="0" result="BackgroundImageFix"/>
<feGaussianBlur in="BackgroundImage" stdDeviation="11.6567"/>
<feComposite in2="SourceAlpha" operator="in" result="effect1_backgroundBlur"/>
<feBlend mode="normal" in="SourceGraphic" in2="effect1_backgroundBlur" result="shape"/>
<feColorMatrix in="SourceAlpha" type="matrix" values="0 0 0 0 0 0 0 0 0 0 0 0 0 0 0 0 0 0 127 0" result="hardAlpha"/>
<feOffset dx="-44.8333" dy="44.8333"/>
<feGaussianBlur stdDeviation="22.4167"/>
<feComposite in2="hardAlpha" operator="arithmetic" k2="-1" k3="1"/>
<feColorMatrix type="matrix" values="0 0 0 0 1 0 0 0 0 1 0 0 0 0 1 0 0 0 0.106 0"/>
<feBlend mode="normal" in2="shape" result="effect2_innerShadow"/>
<feColorMatrix in="SourceAlpha" type="matrix" values="0 0 0 0 0 0 0 0 0 0 0 0 0 0 0 0 0 0 127 0" result="hardAlpha"/>
<feOffset dx="44.8333" dy="-44.8333"/>
<feGaussianBlur stdDeviation="22.4167"/>
<feComposite in2="hardAlpha" operator="arithmetic" k2="-1" k3="1"/>
<feColorMatrix type="matrix" values="0 0 0 0 0.61275 0 0 0 0 0.76 0 0 0 0 0.72466 0 0 0 0.106 0"/>
<feBlend mode="normal" in2="effect2_innerShadow" result="effect3_innerShadow"/>
</filter>
</defs>
</svg>
